<svg xmlns="http://www.w3.org/2000/svg" xmlns:xlink="http://www.w3.org/1999/xlink" width="500" zoomAndPan="magnify" viewBox="0 0 375 374.999991" height="500" preserveAspectRatio="xMidYMid meet" version="1.0"><defs><g/><clipPath id="37659f5463"><path d="M 210.050781 201.921875 L 358.742188 201.921875 L 358.742188 350.613281 L 210.050781 350.613281 Z M 210.050781 201.921875 " clip-rule="nonzero"/></clipPath><clipPath id="bede800565"><path d="M 284.398438 201.921875 C 243.335938 201.921875 210.050781 235.207031 210.050781 276.265625 C 210.050781 317.328125 243.335938 350.613281 284.398438 350.613281 C 325.457031 350.613281 358.742188 317.328125 358.742188 276.265625 C 358.742188 235.207031 325.457031 201.921875 284.398438 201.921875 Z M 284.398438 201.921875 " clip-rule="nonzero"/></clipPath><clipPath id="d9dbeed1fd"><path d="M 210.050781 201.921875 L 358.550781 201.921875 L 358.550781 350.421875 L 210.050781 350.421875 Z M 210.050781 201.921875 " clip-rule="nonzero"/></clipPath><clipPath id="f5898aa631"><path d="M 284.394531 201.921875 C 243.335938 201.921875 210.050781 235.207031 210.050781 276.265625 C 210.050781 317.324219 243.335938 350.609375 284.394531 350.609375 C 325.457031 350.609375 358.738281 317.324219 358.738281 276.265625 C 358.738281 235.207031 325.457031 201.921875 284.394531 201.921875 Z M 284.394531 201.921875 " clip-rule="nonzero"/></clipPath></defs><path fill="#82b434" d="M 221.449219 69.445312 L 202.160156 69.445312 L 202.160156 19.289062 C 202.160156 10.773438 195.246094 3.859375 186.726562 3.859375 C 178.210938 3.859375 171.296875 10.773438 171.296875 19.289062 L 171.296875 69.445312 L 152.007812 69.445312 C 141.726562 69.445312 136.558594 81.929688 143.828125 89.199219 L 178.550781 123.917969 C 180.800781 126.1875 183.765625 127.316406 186.726562 127.316406 C 189.691406 127.316406 192.65625 126.1875 194.90625 123.917969 L 229.628906 89.199219 C 236.898438 81.929688 231.726562 69.445312 221.449219 69.445312 Z M 221.449219 69.445312 " fill-opacity="1" fill-rule="nonzero"/><path fill="#82b434" d="M 343.78125 138.890625 L 369.691406 103.257812 C 374.183594 97.097656 371.558594 88.273438 364.367188 85.601562 L 233.023438 36.820312 L 233.023438 40.183594 C 245.324219 43.640625 255.585938 52.546875 260.664062 64.769531 C 267.253906 80.679688 263.640625 98.84375 251.464844 111.035156 L 240.339844 122.160156 L 291.960938 138.90625 L 186.726562 173.023438 L 81.496094 138.890625 L 133.117188 122.144531 L 122.007812 111.019531 C 109.816406 98.828125 106.21875 80.679688 112.808594 64.753906 C 117.871094 52.546875 128.132812 43.640625 140.433594 40.183594 L 140.433594 36.820312 L 9.089844 85.601562 C 1.882812 88.273438 -0.726562 97.097656 3.765625 103.257812 L 29.675781 138.890625 L 3.765625 174.523438 C -0.726562 180.679688 1.898438 189.507812 9.089844 192.175781 L 144.121094 242.332031 C 148.625 244.011719 153.84375 242.730469 157.035156 238.890625 L 186.726562 203.257812 L 216.417969 238.890625 C 219.613281 242.730469 224.832031 244.011719 229.335938 242.332031 L 364.367188 192.175781 C 371.558594 189.507812 374.183594 180.679688 369.691406 174.523438 Z M 343.78125 138.890625 " fill-opacity="1" fill-rule="nonzero"/><path fill="#82b434" d="M 171.296875 257.113281 C 164.953125 262.839844 156.835938 266.203125 148.148438 266.203125 C 143.996094 266.203125 139.9375 265.476562 136.050781 264.027344 L 32.40625 225.539062 L 32.40625 294.105469 C 32.40625 312.40625 44.074219 328.582031 61.433594 334.367188 L 171.296875 370.972656 Z M 171.296875 257.113281 " fill-opacity="1" fill-rule="nonzero"/><path fill="#82b434" d="M 237.40625 264.027344 C 233.519531 265.476562 229.460938 266.203125 225.308594 266.203125 C 216.636719 266.203125 208.503906 262.839844 202.160156 257.097656 L 202.160156 370.957031 L 312.023438 334.351562 C 329.382812 328.582031 341.050781 312.40625 341.050781 294.105469 L 341.050781 225.539062 Z M 237.40625 264.027344 " fill-opacity="1" fill-rule="nonzero"/><g clip-path="url(#37659f5463)"><g clip-path="url(#bede800565)"><path fill="#82b434" d="M 210.050781 201.921875 L 358.742188 201.921875 L 358.742188 350.613281 L 210.050781 350.613281 Z M 210.050781 201.921875 " fill-opacity="1" fill-rule="nonzero"/></g></g><g clip-path="url(#d9dbeed1fd)"><g clip-path="url(#f5898aa631)"><path stroke-linecap="butt" transform="matrix(0.75, 0, 0, 0.75, 210.052433, 201.923072)" fill="none" stroke-linejoin="miter" d="M 99.122804 -0.00159645 C 44.378009 -0.00159645 -0.00220248 44.378615 -0.00220248 99.12341 C -0.00220248 153.868205 44.378009 198.248417 99.122804 198.248417 C 153.872808 198.248417 198.247811 153.868205 198.247811 99.12341 C 198.247811 44.378615 153.872808 -0.00159645 99.122804 -0.00159645 Z M 99.122804 -0.00159645 " stroke="#82b434" stroke-width="34" stroke-opacity="1" stroke-miterlimit="4"/></g></g><g fill="#ffffff" fill-opacity="1"><g transform="translate(246.388143, 321.745674)"><g><path d="M 10.578125 0.265625 L 5.546875 -0.796875 L 5.015625 -3.703125 L 6.34375 -6.875 L 9.515625 -11.375 L 11.5 -13.34375 L 12.828125 -15.859375 L 14.140625 -17.984375 L 16 -20.09375 L 17.046875 -22.46875 L 18.765625 -24.328125 L 20.09375 -26.96875 L 24.984375 -33.4375 L 26.171875 -35.6875 L 32.515625 -44.421875 L 36.75 -51.546875 L 38.859375 -53.53125 L 40.984375 -56.84375 L 42.5625 -60.546875 L 43.21875 -63.1875 L 43.359375 -65.5625 L 42.96875 -68.34375 L 41.375 -70.59375 L 39.53125 -72.046875 L 35.953125 -72.3125 L 32.125 -72.046875 L 30.140625 -71.109375 L 28.03125 -69.40625 L 27.09375 -67.15625 L 25.515625 -64.765625 L 23 -63.578125 L 10.046875 -63.71875 L 7.671875 -65.171875 L 6.34375 -67.546875 L 6.875 -70.1875 L 7 -72.828125 L 10.3125 -80.5 L 11.5 -82.625 L 17.1875 -88.171875 L 19.5625 -89.75 L 24.328125 -91.875 L 29.34375 -93.1875 L 35.6875 -93.59375 L 44.28125 -92.796875 L 48.109375 -92 L 50.359375 -90.8125 L 57.375 -86.453125 L 59.359375 -84.59375 L 61.078125 -82.625 L 65.96875 -73.5 L 67.015625 -65.5625 L 67.015625 -63.046875 L 65.96875 -57.890625 L 63.578125 -52.875 L 62.796875 -50.09375 L 55.125 -39.265625 L 53.9375 -37.28125 L 51.953125 -35.03125 L 45.609375 -26.5625 L 44.15625 -24.0625 L 44.15625 -21.9375 L 47.328125 -21.15625 L 63.984375 -21.015625 L 68.46875 -19.953125 L 69.53125 -17.046875 L 69.65625 -11.765625 L 69.265625 -9.125 L 69.53125 -6.484375 L 69.265625 -3.96875 L 68.203125 -1.328125 L 65.5625 0.125 L 49.578125 -0.125 L 47.453125 0.125 L 13.609375 -0.125 Z M 10.578125 0.265625 "/></g></g></g></svg>