<svg xmlns="http://www.w3.org/2000/svg" xmlns:xlink="http://www.w3.org/1999/xlink" width="500" zoomAndPan="magnify" viewBox="0 0 375 374.999991" height="500" preserveAspectRatio="xMidYMid meet" version="1.0"><defs><g/><clipPath id="039b85a95a"><path d="M 40 226 L 185 226 L 185 372.734375 L 40 372.734375 Z M 40 226 " clip-rule="nonzero"/></clipPath><clipPath id="2fefdb58fd"><path d="M 1.34375 148 L 183 148 L 183 268 L 1.34375 268 Z M 1.34375 148 " clip-rule="nonzero"/></clipPath><clipPath id="1f9346a70e"><path d="M 192 22.484375 L 373 22.484375 L 373 141 L 192 141 Z M 192 22.484375 " clip-rule="nonzero"/></clipPath><clipPath id="2912bab6ad"><path d="M 190 226 L 335 226 L 335 372.734375 L 190 372.734375 Z M 190 226 " clip-rule="nonzero"/></clipPath><clipPath id="1c82965b47"><path d="M 1.34375 22.484375 L 182 22.484375 L 182 141 L 1.34375 141 Z M 1.34375 22.484375 " clip-rule="nonzero"/></clipPath><clipPath id="583c031a69"><path d="M 139.0625 231.402344 L 366.746094 231.402344 L 366.746094 350.597656 L 139.0625 350.597656 Z M 139.0625 231.402344 " clip-rule="nonzero"/></clipPath><clipPath id="90cb49f535"><path d="M 198.660156 231.402344 L 306.917969 231.402344 C 322.726562 231.402344 337.886719 237.683594 349.0625 248.859375 C 360.238281 260.035156 366.519531 275.195312 366.519531 291 C 366.519531 306.808594 360.238281 321.964844 349.0625 333.144531 C 337.886719 344.320312 322.726562 350.597656 306.917969 350.597656 L 198.660156 350.597656 C 182.855469 350.597656 167.695312 344.320312 156.519531 333.144531 C 145.339844 321.964844 139.0625 306.808594 139.0625 291 C 139.0625 275.195312 145.339844 260.035156 156.519531 248.859375 C 167.695312 237.683594 182.855469 231.402344 198.660156 231.402344 Z M 198.660156 231.402344 " clip-rule="nonzero"/></clipPath><clipPath id="e3298416e8"><path d="M 0.0625 0.402344 L 227.71875 0.402344 L 227.71875 119.597656 L 0.0625 119.597656 Z M 0.0625 0.402344 " clip-rule="nonzero"/></clipPath><clipPath id="95e41852e5"><path d="M 59.660156 0.402344 L 167.917969 0.402344 C 183.726562 0.402344 198.886719 6.683594 210.0625 17.859375 C 221.238281 29.035156 227.519531 44.195312 227.519531 60 C 227.519531 75.808594 221.238281 90.964844 210.0625 102.144531 C 198.886719 113.320312 183.726562 119.597656 167.917969 119.597656 L 59.660156 119.597656 C 43.855469 119.597656 28.695312 113.320312 17.519531 102.144531 C 6.339844 90.964844 0.0625 75.808594 0.0625 60 C 0.0625 44.195312 6.339844 29.035156 17.519531 17.859375 C 28.695312 6.683594 43.855469 0.402344 59.660156 0.402344 Z M 59.660156 0.402344 " clip-rule="nonzero"/></clipPath><clipPath id="430db00b9c"><rect x="0" width="228" y="0" height="120"/></clipPath><clipPath id="011e3b792f"><path d="M 139.0625 231.402344 L 366.3125 231.402344 L 366.3125 350.652344 L 139.0625 350.652344 Z M 139.0625 231.402344 " clip-rule="nonzero"/></clipPath><clipPath id="23677e5e56"><path d="M 198.660156 231.402344 L 306.914062 231.402344 C 322.71875 231.402344 337.878906 237.683594 349.054688 248.859375 C 360.230469 260.035156 366.511719 275.191406 366.511719 291 C 366.511719 306.804688 360.230469 321.960938 349.054688 333.140625 C 337.878906 344.316406 322.71875 350.59375 306.914062 350.59375 L 198.660156 350.59375 C 182.855469 350.59375 167.695312 344.316406 156.519531 333.140625 C 145.34375 321.960938 139.0625 306.804688 139.0625 291 C 139.0625 275.191406 145.34375 260.035156 156.519531 248.859375 C 167.695312 237.683594 182.855469 231.402344 198.660156 231.402344 Z M 198.660156 231.402344 " clip-rule="nonzero"/></clipPath></defs><g clip-path="url(#039b85a95a)"><path fill="#d2a168" d="M 146.007812 273.957031 C 145.605469 273.957031 145.1875 273.875 144.800781 273.695312 L 43.289062 226.652344 C 42.011719 226.0625 40.542969 226.996094 40.542969 228.410156 L 40.542969 305.558594 C 40.542969 306.3125 40.980469 307.003906 41.667969 307.316406 L 181.695312 372.210938 C 182.972656 372.800781 184.441406 371.867188 184.441406 370.453125 L 184.441406 229 C 184.441406 227.128906 182.046875 226.339844 180.941406 227.859375 L 148.324219 272.773438 C 147.769531 273.539062 146.898438 273.957031 146.007812 273.957031 Z M 146.007812 273.957031 " fill-opacity="1" fill-rule="nonzero"/></g><g clip-path="url(#2fefdb58fd)"><path fill="#ddb173" d="M 143.636719 266.824219 C 144.472656 267.210938 145.472656 266.953125 146.015625 266.207031 L 182.941406 215.355469 C 182.941406 215.355469 40.054688 149.132812 40.054688 149.132812 C 39.21875 148.746094 38.21875 149 37.675781 149.746094 L 34.808594 153.695312 L 2.132812 198.695312 C 1.421875 199.679688 1.78125 201.074219 2.886719 201.589844 L 34.816406 216.382812 L 37.683594 217.710938 L 40.554688 219.042969 L 143.636719 266.816406 Z M 143.636719 266.824219 " fill-opacity="1" fill-rule="nonzero"/></g><g clip-path="url(#1f9346a70e)"><path fill="#ddb173" d="M 371.738281 88.136719 L 230.988281 22.914062 C 230.152344 22.527344 229.152344 22.78125 228.613281 23.527344 L 193.070312 72.472656 C 192.359375 73.460938 192.71875 74.855469 193.824219 75.371094 L 334.574219 140.59375 C 335.410156 140.980469 336.410156 140.726562 336.949219 139.980469 L 372.492188 91.042969 C 373.207031 90.058594 372.84375 88.660156 371.738281 88.144531 Z M 371.738281 88.136719 " fill-opacity="1" fill-rule="nonzero"/></g><g clip-path="url(#2912bab6ad)"><path fill="#a37549" d="M 228.621094 273.957031 C 227.726562 273.957031 226.851562 273.539062 226.300781 272.773438 L 193.683594 227.859375 C 192.585938 226.339844 190.1875 227.121094 190.1875 229 L 190.1875 370.453125 C 190.1875 371.867188 191.652344 372.800781 192.929688 372.210938 L 332.984375 307.316406 C 333.664062 306.996094 334.105469 306.3125 334.105469 305.558594 L 334.105469 228.398438 C 334.105469 226.988281 332.640625 226.050781 331.363281 226.644531 L 229.824219 273.695312 C 229.441406 273.875 229.03125 273.957031 228.621094 273.957031 Z M 228.621094 273.957031 " fill-opacity="1" fill-rule="nonzero"/></g><path fill="#d2a168" d="M 330.117188 144.863281 L 330.125 144.863281 L 190.1875 80.019531 L 190.1875 209.71875 L 191.882812 208.921875 Z M 330.117188 144.863281 " fill-opacity="1" fill-rule="nonzero"/><path fill="#a37549" d="M 184.449219 206.6875 L 184.449219 83.046875 C 184.449219 81.636719 182.984375 80.699219 181.703125 81.289062 L 48.304688 143.105469 C 46.8125 143.796875 46.8125 145.929688 48.304688 146.621094 L 181.703125 208.4375 C 182.984375 209.027344 184.449219 208.09375 184.449219 206.679688 Z M 184.449219 206.6875 " fill-opacity="1" fill-rule="nonzero"/><path fill="#ddb173" d="M 336.96875 149.78125 L 336.015625 148.476562 C 336.015625 148.476562 191.695312 215.347656 191.695312 215.347656 C 191.695312 215.347656 228.621094 266.199219 228.621094 266.199219 C 229.160156 266.945312 230.160156 267.210938 230.996094 266.816406 L 334.105469 219.035156 L 336.976562 217.703125 L 339.84375 216.375 L 371.746094 201.589844 C 372.855469 201.082031 373.214844 199.679688 372.5 198.695312 L 339.84375 153.730469 L 336.976562 149.78125 Z M 336.96875 149.78125 " fill-opacity="1" fill-rule="nonzero"/><g clip-path="url(#1c82965b47)"><path fill="#ddb173" d="M 181.558594 72.472656 L 146.015625 23.527344 C 145.472656 22.78125 144.472656 22.519531 143.636719 22.914062 L 2.886719 88.136719 C 1.78125 88.644531 1.421875 90.046875 2.132812 91.035156 L 37.675781 139.980469 C 38.21875 140.726562 39.21875 140.988281 40.054688 140.59375 L 180.804688 75.371094 C 181.910156 74.863281 182.269531 73.460938 181.558594 72.472656 Z M 181.558594 72.472656 " fill-opacity="1" fill-rule="nonzero"/></g><g clip-path="url(#583c031a69)"><g clip-path="url(#90cb49f535)"><g transform="matrix(1, 0, 0, 1, 139, 231)"><g clip-path="url(#430db00b9c)"><g clip-path="url(#e3298416e8)"><g clip-path="url(#95e41852e5)"><path fill="#a37549" d="M 0.0625 0.402344 L 227.746094 0.402344 L 227.746094 119.597656 L 0.0625 119.597656 Z M 0.0625 0.402344 " fill-opacity="1" fill-rule="nonzero"/></g></g></g></g></g></g><g clip-path="url(#011e3b792f)"><g clip-path="url(#23677e5e56)"><path stroke-linecap="butt" transform="matrix(0.75, 0, 0, 0.75, 139.064235, 231.402904)" fill="none" stroke-linejoin="miter" d="M 79.461234 -0.000747006 L 223.799785 -0.000747006 C 244.872703 -0.000747006 265.086246 8.374254 279.987289 23.275296 C 294.888332 38.176339 303.263332 58.384673 303.263332 79.4628 C 303.263332 100.535718 294.888332 120.744053 279.987289 135.650304 C 265.086246 150.551346 244.872703 158.921138 223.799785 158.921138 L 79.461234 158.921138 C 58.388316 158.921138 38.174773 150.551346 23.27373 135.650304 C 8.372688 120.744053 -0.00231276 100.535718 -0.00231276 79.4628 C -0.00231276 58.384673 8.372688 38.176339 23.27373 23.275296 C 38.174773 8.374254 58.388316 -0.000747006 79.461234 -0.000747006 Z M 79.461234 -0.000747006 " stroke="#f8f8f8" stroke-width="14" stroke-opacity="1" stroke-miterlimit="4"/></g></g><g fill="#ffffff" fill-opacity="1"><g transform="translate(167.061658, 316.501122)"><g><path d="M 7.828125 0.21875 L 6.3125 -0.75 L 5.484375 -2.328125 L 5.5625 -18.953125 L 5.421875 -20.375 L 5.640625 -27.96875 L 5.484375 -29.484375 L 5.5625 -41.515625 L 5.421875 -42.859375 L 5.640625 -45.796875 L 5.421875 -50.390625 L 6.234375 -51.96875 L 7.890625 -52.71875 L 10 -52.109375 L 11.734375 -50.84375 L 13.6875 -48.8125 L 14.890625 -47.75 L 16.84375 -45.421875 L 17.890625 -44.515625 L 24.734375 -36.921875 L 26.390625 -35.421875 L 27.75 -33.6875 L 28.796875 -32.640625 L 29.703125 -31.359375 L 31.28125 -30.765625 L 32.640625 -31.65625 L 37.21875 -36.328125 L 38.203125 -37.609375 L 44.828125 -44.375 L 45.875 -45.71875 L 46.78125 -46.546875 L 47.75 -47.75 L 50.90625 -51.0625 L 52.484375 -52.046875 L 54.671875 -52.71875 L 56.25 -51.890625 L 57.15625 -50.3125 L 57 -48.875 L 57.078125 -45.796875 L 57 -44.515625 L 57.15625 -41.28125 L 57.078125 -39.859375 L 57.15625 -32.40625 L 57 -30.765625 L 57.15625 -8.203125 L 57 -6.6875 L 57.234375 -2.78125 L 56.328125 -0.609375 L 54.75 0.21875 L 45.640625 -0.078125 L 44.0625 -0.53125 L 43.46875 -2.25 L 43.46875 -3.390625 L 43.3125 -6.765625 L 43.46875 -8.125 L 43.3125 -10.90625 L 43.46875 -13.84375 L 43.234375 -16.84375 L 43.390625 -20.984375 L 42.796875 -22.109375 L 41.8125 -21.65625 L 38.734375 -18.5 L 37.671875 -17.75 L 35.578125 -15.265625 L 34.671875 -14.359375 L 33.609375 -13.234375 L 32.109375 -12.109375 L 30.453125 -12.1875 L 28.875 -13.3125 L 26.84375 -15.265625 L 25.875 -16.46875 L 22.78125 -19.546875 L 21.890625 -20.6875 L 20.6875 -21.65625 L 19.921875 -21.953125 L 19.25 -21.28125 L 19.25 -18.34375 L 19.40625 -16.6875 L 19.25 -13.984375 L 19.328125 -12.40625 L 19.109375 -10.078125 L 19.328125 -2.1875 L 18.421875 -0.828125 L 16.3125 0.078125 L 13.90625 -0.078125 L 12.265625 0.15625 L 9.328125 0 Z M 7.828125 0.21875 "/></g></g></g><g fill="#ffffff" fill-opacity="1"><g transform="translate(229.928273, 316.501122)"><g><path d="M 25.875 0.984375 L 23.46875 0.828125 L 21.953125 0.828125 L 19.03125 0.21875 L 16.171875 -1.046875 L 15.046875 -1.734375 L 13.53125 -2.40625 L 11.125 -3.984375 L 10 -4.96875 L 9.09375 -6.015625 L 7.375 -8.71875 L 6.171875 -11.28125 L 5.421875 -14.359375 L 4.96875 -20.375 L 5.1875 -32.484375 L 5.03125 -33.921875 L 5.265625 -35.421875 L 5.03125 -45.953125 L 5.1875 -47.15625 L 5.1875 -48.953125 L 5.03125 -50.46875 L 6.015625 -51.890625 L 7.59375 -52.484375 L 9.171875 -52.71875 L 12.40625 -52.421875 L 13.90625 -52.640625 L 15.34375 -52.640625 L 16.921875 -51.96875 L 17.828125 -50.3125 L 17.96875 -48.125 L 17.828125 -45.71875 L 17.96875 -44.59375 L 17.75 -20.375 L 18.203125 -16.015625 L 18.65625 -14.59375 L 19.546875 -13.390625 L 20.75 -12.484375 L 22.03125 -11.734375 L 23.765625 -11.359375 L 28.28125 -11.359375 L 30.90625 -12.328125 L 32.1875 -13.234375 L 33.015625 -14.734375 L 33.46875 -15.875 L 33.984375 -20.53125 L 33.84375 -50.15625 L 34.671875 -51.8125 L 36.25 -52.5625 L 39.40625 -52.34375 L 44.140625 -52.484375 L 45.796875 -51.96875 L 46.78125 -50.390625 L 46.546875 -48.875 L 46.546875 -42.640625 L 46.703125 -41.4375 L 46.546875 -39.78125 L 46.703125 -38.359375 L 46.703125 -18.046875 L 46.328125 -14.4375 L 45.640625 -11.28125 L 44.890625 -10 L 44.4375 -8.5 L 42.71875 -5.859375 L 40.609375 -3.765625 L 38.125 -2.109375 L 35.421875 -0.671875 L 29.5625 0.828125 L 28.125 0.75 Z M 25.875 0.984375 "/></g></g></g><g fill="#ffffff" fill-opacity="1"><g transform="translate(281.815793, 316.501122)"><g><path d="M 44.375 -1.28125 L 43.234375 -2.25 L 41.28125 -4.4375 L 29.625 -16.015625 L 28.359375 -16.84375 L 27.375 -17.96875 L 22.03125 -23.09375 L 21.0625 -24.359375 L 20.078125 -24.734375 L 19.546875 -23.46875 L 19.40625 -21.953125 L 19.328125 -2.9375 L 18.578125 -0.609375 L 17.078125 0.15625 L 15.484375 0.21875 L 12.5625 0 L 10.90625 0.15625 L 7.828125 0 L 6.234375 -0.53125 L 5.5625 -1.953125 L 5.421875 -8.265625 L 5.5625 -9.703125 L 5.421875 -22.03125 L 5.640625 -23.3125 L 5.484375 -26.390625 L 5.5625 -27.671875 L 5.5625 -50.46875 L 6.234375 -51.890625 L 7.96875 -52.640625 L 10.234375 -52.109375 L 11.953125 -51.21875 L 13.078125 -50.3125 L 27.90625 -35.34375 L 30 -33.6875 L 35.34375 -28.359375 L 36.46875 -27.828125 L 36.921875 -29.109375 L 37.078125 -42.5625 L 36.921875 -44.21875 L 37.15625 -47.375 L 36.921875 -48.578125 L 37 -50.15625 L 37.828125 -51.734375 L 39.25 -52.5625 L 48.578125 -52.640625 L 50.078125 -51.8125 L 50.84375 -50.3125 L 51.0625 -39.859375 L 50.84375 -38.046875 L 50.84375 -30.609375 L 51.0625 -29.328125 L 50.90625 -1.875 L 50.15625 -0.375 L 48.5 0.15625 L 46.40625 -0.078125 Z M 44.375 -1.28125 "/></g></g></g></svg>